# xmcd
#
# Track frame offsets:
#	150
#	13805
#	30972
#	47407
#	65752
#	85800
#	97882
#	115035
#	129720
#	150977
#
# Disc length: 2302 seconds
#
# Revision: 0
# Processed by: cddbd v1.4PL0 Copyright (c) Steve Scherf et al.
# Submitted via: EasyCDDAExtractor 4.6.9.1
#
DISCID=6e08fc0a
DTITLE=Walt Mills - He Knows the Way
DYEAR=1900
DGENRE=
TTITLE0=He Knows The Way
TTITLE1=My Song of Praise
TTITLE2=I'm On My Way
TTITLE3=Love Held My Savior To the Tree
TTITLE4=Let the Blood of Calvary Speak for Me
TTITLE5=You Cannot Change the Book
TTITLE6=Lord, You'll Hold My Hand
TTITLE7=When Will You Surrender
TTITLE8=Shattered Dreams
TTITLE9=Thank You With All My Heart
EXTD=
EXTT0=
EXTT1=
EXTT2=
EXTT3=
EXTT4=
EXTT5=
EXTT6=
EXTT7=
EXTT8=
EXTT9=
PLAYORDER=
